# xmcd
#
# Track frame offsets: 
#        150
#        13544
#        27463
#        43189
#        58807
#        73972
#        89573
#        103061
#        117721
#        131738
#        147306
#        162670
#        178069
#        191067
#        203658
#        215814
#        230528
#        245835
#        260721
#        274748
#        288598
#        302164
#        316097
#
# Disc length: 4403 seconds
#
# Revision: 0
# Processed by: cddbd v1.5.2PL0 Copyright (c) Steve Scherf et al.
# Submitted via: ExactAudioCopy v0.95b4
#
DISCID=7f113117
DTITLE=Bessie Smith - Queen of the Blues Volume 1 CD D - [788065-902926
DTITLE=]
DYEAR=2007
DGENRE=Blues
TTITLE0=Nobody's Blues But Mine
TTITLE1=I Ain't Got Nobody
TTITLE2=My Man Blues
TTITLE3=New Gulf Coast Blues
TTITLE4=Florida Bound Blues
TTITLE5=At the Christmas Ball
TTITLE6=I've Been Mistreated and I Don't Like It
TTITLE7=Red Mountain Blues
TTITLE8=Golden Rule Blues
TTITLE9=Lonesome Desert Blues
TTITLE10=Squeeze Me
TTITLE11=Them Has Been Blues
TTITLE12=Squeeze Me
TTITLE13=What's the Matter Now?
TTITLE14=I Want Every Bit
TTITLE15=Jazzbo Brown from Memphis Town
TTITLE16=The Gin House Blues
TTITLE17=Money Blues
TTITLE18=Baby Doll
TTITLE19=Hard Drivin' Papa
TTITLE20=Lost Your Head Blues
TTITLE21=Hard Times Blues
TTITLE22=Honey Man Blues
EXTD=
EXTT0=
EXTT1=
EXTT2=
EXTT3=
EXTT4=
EXTT5=
EXTT6=
EXTT7=
EXTT8=
EXTT9=
EXTT10=
EXTT11=
EXTT12=
EXTT13=
EXTT14=
EXTT15=
EXTT16=
EXTT17=
EXTT18=
EXTT19=
EXTT20=
EXTT21=
EXTT22=
PLAYORDER=
